<svg 
    title="arrowLeft"
    width="17" 
    height="16" 
    viewBox="0 0 17 16" 
    fill="none" 
    xmlns="http://www.w3.org/2000/svg">
<path 
    d="M10.0352 14.4297C10.3867 14.0781 10.3516 13.5508 10.0352 13.1992L5.78125 9.15625H15.9062C16.3633 9.15625 16.75 8.80469 16.75 8.3125V7.1875C16.75 6.73047 16.3633 6.34375 15.9062 6.34375H5.78125L10.0352 2.33594C10.3516 1.98438 10.3867 1.45703 10.0352 1.10547L9.26172 0.332031C8.94531 0.015625 8.38281 0.015625 8.06641 0.332031L1.24609 7.1875C0.894531 7.50391 0.894531 8.03125 1.24609 8.34766L8.06641 15.2031C8.38281 15.5195 8.91016 15.5195 9.26172 15.2031L10.0352 14.4297Z" fill="#415AF3"/>
</svg>
