<svg 
    title="iconStudy"
    width="16" 
    height="17" 
    viewBox="0 0 16 17" 
    fill="none" 
    xmlns="http://www.w3.org/2000/svg">
<path 
    d="M15.75 14.9375V2.5625C15.75 1.64844 14.9766 0.875 14.0625 0.875H1.6875C0.738281 0.875 0 1.64844 0 2.5625V14.9375C0 15.8867 0.738281 16.625 1.6875 16.625H14.0625C14.9766 16.625 15.75 15.8867 15.75 14.9375ZM3.9375 6.5C3.62109 6.5 3.375 6.25391 3.375 5.9375V4.8125C3.375 4.53125 3.62109 4.25 3.9375 4.25H8.4375C8.71875 4.25 9 4.53125 9 4.8125V5.9375C9 6.25391 8.71875 6.5 8.4375 6.5H3.9375ZM3.9375 9.875C3.62109 9.875 3.375 9.62891 3.375 9.3125V8.1875C3.375 7.90625 3.62109 7.625 3.9375 7.625H11.8125C12.0938 7.625 12.375 7.90625 12.375 8.1875V9.3125C12.375 9.62891 12.0938 9.875 11.8125 9.875H3.9375ZM3.9375 13.25C3.62109 13.25 3.375 13.0039 3.375 12.6875V11.5625C3.375 11.2812 3.62109 11 3.9375 11H6.1875C6.46875 11 6.75 11.2812 6.75 11.5625V12.6875C6.75 13.0039 6.46875 13.25 6.1875 13.25H3.9375Z" fill="#415AF3"/>
</svg>
