<svg 
    title="iconLeisure"
    width="22" 
    height="19" 
    viewBox="0 0 22 19" 
    fill="none" 
    xmlns="http://www.w3.org/2000/svg">
<path 
    d="M20.1953 1.10156C19.9844 0.679688 19.4219 0.644531 19.1758 1.06641C18.0859 2.96484 16.1523 4.125 13.9375 4.125H11.125C7.39844 4.125 4.375 7.14844 4.375 10.875C4.375 11.1211 4.375 11.3672 4.41016 11.6133C6.66016 9.99609 9.89453 8.625 14.5 8.625C14.7812 8.625 15.0625 8.90625 15.0625 9.1875C15.0625 9.50391 14.7812 9.75 14.5 9.75C5.64062 9.75 1.91406 15.1992 1.07031 17.2031C0.824219 17.8008 1.10547 18.4336 1.66797 18.6797C2.26562 18.9258 2.89844 18.6445 3.14453 18.082C3.21484 17.9414 3.88281 16.3945 5.67578 14.8828C6.83594 16.4297 8.98047 17.9062 11.8281 17.5898C17.3477 17.2031 21.25 12.2461 21.25 6.19922C21.25 4.44141 20.8633 2.61328 20.1953 1.10156Z" fill="#415AF3"/>
</svg>
