<svg 
    title="iconUser"
    width="16" 
    height="19" 
    viewBox="0 0 16 19" 
    fill="none" 
    xmlns="http://www.w3.org/2000/svg">
<path 
    d="M7.875 9.75C10.3359 9.75 12.375 7.74609 12.375 5.25C12.375 2.78906 10.3359 0.75 7.875 0.75C5.37891 0.75 3.375 2.78906 3.375 5.25C3.375 7.74609 5.37891 9.75 7.875 9.75ZM11.0039 10.875H10.4062C9.63281 11.2617 8.78906 11.4375 7.875 11.4375C6.96094 11.4375 6.08203 11.2617 5.30859 10.875H4.71094C2.10938 10.875 0 13.0195 0 15.6211V17.0625C0 18.0117 0.738281 18.75 1.6875 18.75H14.0625C14.9766 18.75 15.75 18.0117 15.75 17.0625V15.6211C15.75 13.0195 13.6055 10.875 11.0039 10.875Z" fill="#415AF3"/>
</svg>
