<svg 
    title="iconWork"
    width="16" 
    height="17" 
    viewBox="0 0 16 17" 
    fill="none" 
    xmlns="http://www.w3.org/2000/svg">
<path 
    d="M14.0625 0.875H1.6875C0.738281 0.875 0 1.64844 0 2.5625V14.9375C0 15.8867 0.738281 16.625 1.6875 16.625H14.0625C14.9766 16.625 15.75 15.8867 15.75 14.9375V2.5625C15.75 1.64844 14.9766 0.875 14.0625 0.875ZM5.625 12.6875C5.625 13.0039 5.34375 13.25 5.0625 13.25H3.9375C3.62109 13.25 3.375 13.0039 3.375 12.6875V8.1875C3.375 7.90625 3.62109 7.625 3.9375 7.625H5.0625C5.34375 7.625 5.625 7.90625 5.625 8.1875V12.6875ZM9 12.6875C9 13.0039 8.71875 13.25 8.4375 13.25H7.3125C6.99609 13.25 6.75 13.0039 6.75 12.6875V4.8125C6.75 4.53125 6.99609 4.25 7.3125 4.25H8.4375C8.71875 4.25 9 4.53125 9 4.8125V12.6875ZM12.375 12.6875C12.375 13.0039 12.0938 13.25 11.8125 13.25H10.6875C10.3711 13.25 10.125 13.0039 10.125 12.6875V10.4375C10.125 10.1562 10.3711 9.875 10.6875 9.875H11.8125C12.0938 9.875 12.375 10.1562 12.375 10.4375V12.6875Z" fill="#415AF3"/>
</svg>
