<svg width="13" height="16" viewBox="0 0 13 16" fill="none" xmlns="http://www.w3.org/2000/svg">
<path d="M1.76 15.14C1.49333 15.14 1.27333 15.0733 1.1 14.94C0.926667 14.7933 0.826667 14.6133 0.8 14.4C0.773333 14.1733 0.846667 13.9467 1.02 13.72L5.74 7.38V8.22L1.28 2.22C1.10667 1.98 1.02667 1.74667 1.04 1.52C1.06667 1.29333 1.16667 1.11333 1.34 0.979999C1.51333 0.833333 1.72667 0.76 1.98 0.76C2.19333 0.76 2.38 0.813333 2.54 0.919999C2.71333 1.01333 2.88667 1.18 3.06 1.42L6.94 6.74H6.3L10.14 1.42C10.3133 1.18 10.48 1.01333 10.64 0.919999C10.8133 0.813333 11.0133 0.76 11.24 0.76C11.5067 0.76 11.7267 0.833333 11.9 0.979999C12.0733 1.11333 12.1667 1.29333 12.18 1.52C12.2067 1.73333 12.1267 1.96667 11.94 2.22L7.48 8.22V7.38L12.18 13.72C12.3533 13.9467 12.4267 14.1733 12.4 14.4C12.3867 14.6133 12.2933 14.7933 12.12 14.94C11.9467 15.0733 11.72 15.14 11.44 15.14C11.24 15.14 11.0533 15.0867 10.88 14.98C10.7067 14.8733 10.5267 14.7067 10.34 14.48L6.22 8.84H6.98L2.88 14.48C2.70667 14.7067 2.52667 14.8733 2.34 14.98C2.16667 15.0867 1.97333 15.14 1.76 15.14Z" fill="#ADB5BD"/>
</svg>
